<?xml version="1.0" encoding="utf-8"?>
<!-- Generator: Adobe Illustrator 21.0.0, SVG Export Plug-In . SVG Version: 6.00 Build 0)  -->
<svg version="1.1" id="Layer_1" xmlns="http://www.w3.org/2000/svg" xmlns:xlink="http://www.w3.org/1999/xlink" x="0px" y="0px"
	 viewBox="0 0 47.7 21.7" style="enable-background:new 0 0 47.7 21.7;" xml:space="preserve">
<style type="text/css">
	.st0{fill:none;}
	.st1{fill:#FFF200;}
	.st2{fill:#FFFFFF;}
	.st3{fill:#F1F2F2;}
	.st4{font-family:'Gotham-Light';}
	.st5{font-size:12px;}
	.st6{font-family:'Gotham-Black';}
	.st7{font-family:'Gotham-Bold';}
	.st8{font-family:'MyriadPro-Regular';}
	.st9{font-size:6.1328px;}
	.st10{fill:url(#SVGID_1_);}
</style>
<rect x="-10.4" y="-66.1" width="90.5" height="10.5"/>
<rect x="-80.2" y="44.8" class="st0" width="109.3" height="109.3"/>
<line class="st0" x1="-21" y1="56.4" x2="-37.6" y2="73"/>
<g>
	<text transform="matrix(1 0 0 1 -69.1665 88.4497)"><tspan x="0" y="0" class="st1 st7 st5">E</tspan><tspan x="8" y="0" class="st1 st6 st5">   </tspan><tspan x="18" y="0" class="st1 st7 st5">ENT</tspan><tspan x="43.3" y="0" class="st4 st5">MEDIA</tspan></text>
	<text transform="matrix(1 0 0 1 14.3127 88.4399)" class="st8 st9">.id</text>
	<g id="XMLID_29_">
		<polygon id="XMLID_30_" class="st1" points="-53.7,84.9 -50.6,80 -54.7,80 -55.9,82.9 -57.2,80 -61.3,80 -58.2,84.9 		"/>
		<polygon id="XMLID_31_" class="st1" points="-58,85.2 -56,88.5 -53.9,85.2 		"/>
	</g>
</g>
<g>
	<text transform="matrix(1 0 0 1 -114.4998 -24.2169)"><tspan x="0" y="0" class="st1 st4 st5">E</tspan><tspan x="8" y="0" class="st1 st6 st5">   </tspan><tspan x="18" y="0" class="st1 st4 st5">ENT</tspan><tspan x="43.3" y="0" class="st1 st7 st5">MEDIA</tspan></text>
	<text transform="matrix(1 0 0 1 -30.0207 -24.2267)" class="st8 st9">.id</text>
	<g id="XMLID_19_">
		<polygon id="XMLID_21_" class="st1" points="-99,-27.8 -95.9,-32.6 -100,-32.6 -101.3,-29.7 -102.5,-32.6 -106.6,-32.6 
			-103.6,-27.8 		"/>
		<polygon id="XMLID_20_" class="st1" points="-103.4,-27.4 -101.3,-24.2 -99.2,-27.4 		"/>
	</g>
</g>
<g>
	<text transform="matrix(1 0 0 1 -114.4998 -36.7169)"><tspan x="0" y="0" class="st1 st4 st5">E</tspan><tspan x="8" y="0" class="st1 st6 st5">   </tspan><tspan x="18" y="0" class="st1 st4 st5">ENT</tspan><tspan x="43.3" y="0" class="st1 st7 st5">MEDIA</tspan></text>
	<text transform="matrix(1 0 0 1 -30.0207 -36.7267)" class="st2 st8 st9">.id</text>
	<g id="XMLID_37_">
		<polygon id="XMLID_39_" class="st1" points="-99,-40.3 -95.9,-45.1 -100,-45.1 -101.3,-42.2 -102.5,-45.1 -106.6,-45.1 
			-103.6,-40.3 		"/>
		<polygon id="XMLID_38_" class="st1" points="-103.4,-39.9 -101.3,-36.7 -99.2,-39.9 		"/>
	</g>
</g>
<g>
	<text transform="matrix(1 0 0 1 -10.7498 -56.5503)"><tspan x="0" y="0" class="st1 st4 st5">E</tspan><tspan x="8" y="0" class="st1 st6 st5">   </tspan><tspan x="18" y="0" class="st1 st4 st5">ENT</tspan><tspan x="43.3" y="0" class="st1 st7 st5">MEDIA</tspan></text>
	<text transform="matrix(1 0 0 1 73.7293 -56.5601)" class="st2 st8 st9">.id</text>
	<g id="XMLID_34_">
		<polygon id="XMLID_36_" class="st1" points="4.7,-60.1 7.8,-65 3.7,-65 2.5,-62.1 1.2,-65 -2.9,-65 0.2,-60.1 		"/>
		<polygon id="XMLID_35_" class="st1" points="0.4,-59.8 2.5,-56.5 4.5,-59.8 		"/>
	</g>
</g>
<g>
	<text transform="matrix(1 0 0 1 -10.7498 -41.5503)"><tspan x="0" y="0" class="st1 st4 st5">E</tspan><tspan x="8" y="0" class="st1 st6 st5">   </tspan><tspan x="18" y="0" class="st1 st4 st5">ENT</tspan></text>
	<g id="XMLID_43_">
		<polygon id="XMLID_45_" class="st1" points="4.7,-45.1 7.8,-50 3.7,-50 2.5,-47.1 1.2,-50 -2.9,-50 0.2,-45.1 		"/>
		<polygon id="XMLID_44_" class="st1" points="0.4,-44.8 2.5,-41.5 4.5,-44.8 		"/>
	</g>
</g>
<rect x="-10.4" y="-30.4" class="st2" width="90.5" height="10.5"/>
<g>
	<text transform="matrix(1 0 0 1 -10.7498 -20.8836)"><tspan x="0" y="0" class="st4 st5">E</tspan><tspan x="8" y="0" class="st6 st5">   </tspan><tspan x="18" y="0" class="st4 st5">ENT</tspan><tspan x="43.3" y="0" class="st7 st5">MEDIA</tspan></text>
	<text transform="matrix(1 0 0 1 73.7293 -20.8934)" class="st8 st9">.id</text>
	<g id="XMLID_40_">
		<polygon id="XMLID_42_" points="4.7,-24.4 7.8,-29.3 3.7,-29.3 2.5,-26.4 1.2,-29.3 -2.9,-29.3 0.2,-24.4 		"/>
		<polygon id="XMLID_41_" points="0.4,-24.1 2.5,-20.8 4.5,-24.1 		"/>
	</g>
</g>
<g>
	<text transform="matrix(1 0 0 1 -114.4998 14.033)"><tspan x="0" y="0" class="st4 st5">E</tspan><tspan x="8" y="0" class="st6 st5">   </tspan><tspan x="18" y="0" class="st4 st5">ENT</tspan><tspan x="43.3" y="0" class="st7 st5">MEDIA</tspan></text>
	<text transform="matrix(1 0 0 1 -30.0207 14.0233)" class="st8 st9">.id</text>
	<g id="XMLID_25_">
		<polygon id="XMLID_27_" points="-99,10.5 -95.9,5.6 -100,5.6 -101.3,8.5 -102.5,5.6 -106.6,5.6 -103.6,10.5 		"/>
		<polygon id="XMLID_26_" points="-103.4,10.8 -101.3,14.1 -99.2,10.8 		"/>
	</g>
</g>
<g>
	<text transform="matrix(1 0 0 1 -114.4998 29.283)"><tspan x="0" y="0" class="st3 st4 st5">E</tspan><tspan x="8" y="0" class="st3 st6 st5">   </tspan><tspan x="18" y="0" class="st3 st4 st5">ENT</tspan><tspan x="43.3" y="0" class="st3 st7 st5">MEDIA</tspan></text>
	<text transform="matrix(1 0 0 1 -30.0207 29.2733)" class="st3 st8 st9">.id</text>
	<g id="XMLID_28_">
		<polygon id="XMLID_33_" class="st3" points="-99,25.7 -95.9,20.9 -100,20.9 -101.3,23.8 -102.5,20.9 -106.6,20.9 -103.6,25.7 		
			"/>
		<polygon id="XMLID_32_" class="st3" points="-103.4,26.1 -101.3,29.3 -99.2,26.1 		"/>
	</g>
</g>
<g>
	<text transform="matrix(1 0 0 1 -114.4998 -10.3003)"><tspan x="0" y="0" class="st1 st4 st5">E</tspan><tspan x="8" y="0" class="st1 st6 st5">   </tspan><tspan x="18" y="0" class="st1 st4 st5">ENT</tspan><tspan x="0" y="9.4" class="st1 st7 st5">MEDIA</tspan></text>
	<text transform="matrix(1 0 0 1 -72.9373 -0.8934)" class="st8 st9">.id</text>
	<g id="XMLID_22_">
		<polygon id="XMLID_24_" class="st1" points="-99,-13.8 -95.9,-18.7 -100,-18.7 -101.3,-15.8 -102.5,-18.7 -106.6,-18.7 
			-103.6,-13.8 		"/>
		<polygon id="XMLID_23_" class="st1" points="-103.4,-13.5 -101.3,-10.2 -99.2,-13.5 		"/>
	</g>
</g>
<g>
	<text transform="matrix(1 0 0 1 -60.9998 -10.3003)"><tspan x="0" y="0" class="st4 st5">E</tspan><tspan x="8" y="0" class="st6 st5">   </tspan><tspan x="18" y="0" class="st4 st5">ENT</tspan><tspan x="0" y="9.4" class="st7 st5">MEDIA</tspan></text>
	<text transform="matrix(1 0 0 1 -19.4373 -0.8934)" class="st8 st9">.id</text>
	<g id="XMLID_46_">
		<polygon id="XMLID_48_" points="-45.5,-13.8 -42.4,-18.7 -46.5,-18.7 -47.8,-15.8 -49,-18.7 -53.1,-18.7 -50.1,-13.8 		"/>
		<polygon id="XMLID_47_" points="-49.9,-13.5 -47.8,-10.2 -45.7,-13.5 		"/>
	</g>
</g>
<g>
	<text transform="matrix(1 0 0 1 1.678467e-04 10.1997)"><tspan x="0" y="0" class="st2 st4 st5">E</tspan><tspan x="8" y="0" class="st2 st6 st5">   </tspan><tspan x="18" y="0" class="st2 st4 st5">ENT</tspan><tspan x="0" y="9.4" class="st2 st7 st5">MEDIA</tspan></text>
	<text transform="matrix(1 0 0 1 41.5627 19.6066)" class="st2 st8 st9">.id</text>
	<g id="XMLID_49_">
		<polygon id="XMLID_51_" class="st2" points="15.5,6.7 18.6,1.8 14.5,1.8 13.2,4.7 12,1.8 7.9,1.8 10.9,6.7 		"/>
		<polygon id="XMLID_50_" class="st2" points="11.1,7 13.2,10.3 15.3,7 		"/>
	</g>
</g>
<g>
	<text transform="matrix(1 0 0 1 -69.1665 71.0857)"><tspan x="0" y="0" class="st2 st7 st5">E</tspan><tspan x="8" y="0" class="st2 st6 st5">   </tspan><tspan x="18" y="0" class="st2 st7 st5">ENT</tspan><tspan x="43.3" y="0" class="st2 st4 st5">MEDIA</tspan></text>
	<text transform="matrix(1 0 0 1 14.3127 71.0759)" class="st2 st8 st9">.id</text>
	<g id="XMLID_1_">
		<polygon id="XMLID_3_" class="st2" points="-53.7,67.5 -50.6,62.7 -54.7,62.7 -55.9,65.6 -57.2,62.7 -61.3,62.7 -58.2,67.5 		"/>
		<polygon id="XMLID_2_" class="st2" points="-58,67.9 -56,71.1 -53.9,67.9 		"/>
	</g>
</g>
<g>
	<text transform="matrix(1 0 0 1 -69.1665 105.0857)"><tspan x="0" y="0" class="st7 st5">E</tspan><tspan x="8" y="0" class="st6 st5">   </tspan><tspan x="18" y="0" class="st7 st5">ENT</tspan><tspan x="43.3" y="0" class="st4 st5">MEDIA</tspan></text>
	<text transform="matrix(1 0 0 1 14.3127 105.0759)" class="st8 st9">.id</text>
	<g id="XMLID_7_">
		<polygon id="XMLID_9_" points="-53.7,101.5 -50.6,96.7 -54.7,96.7 -55.9,99.6 -57.2,96.7 -61.3,96.7 -58.2,101.5 		"/>
		<polygon id="XMLID_8_" points="-58,101.9 -56,105.1 -53.9,101.9 		"/>
	</g>
</g>
<rect x="-34.8" y="112.6" class="st1" width="20.7" height="20.7"/>
<g id="XMLID_4_">
	<polygon id="XMLID_6_" class="st2" points="-20.3,124.1 -14.7,115.2 -22.2,115.2 -24.4,120.5 -26.8,115.2 -34.3,115.2 -28.6,124.1 
			"/>
	<polygon id="XMLID_5_" class="st2" points="-28.3,124.7 -24.5,130.7 -20.7,124.7 	"/>
</g>
<linearGradient id="SVGID_1_" gradientUnits="userSpaceOnUse" x1="-157.979" y1="173.1895" x2="-135.729" y2="173.1895">
	<stop  offset="0" style="stop-color:#FCB01A"/>
	<stop  offset="2.452207e-02" style="stop-color:#FAAB1E"/>
	<stop  offset="0.1785" style="stop-color:#F48D2C"/>
	<stop  offset="0.3358" style="stop-color:#F07533"/>
	<stop  offset="0.495" style="stop-color:#EC5F37"/>
	<stop  offset="0.6569" style="stop-color:#EA4E38"/>
	<stop  offset="0.823" style="stop-color:#E94239"/>
	<stop  offset="1" style="stop-color:#E93E3A"/>
</linearGradient>
<rect x="-158" y="162.4" class="st10" width="22.3" height="21.6"/>
<rect x="-336.7" y="150.8" class="st0" width="216" height="67.5"/>
<g>
	<text transform="matrix(1 0 0 1 -219.3332 201.6164)"><tspan x="0" y="0" class="st1 st7 st5">E</tspan><tspan x="8" y="0" class="st1 st6 st5">   </tspan><tspan x="18" y="0" class="st1 st7 st5">ENT</tspan><tspan x="43.3" y="0" class="st2 st4 st5">MEDIA</tspan></text>
	<text transform="matrix(1 0 0 1 -135.854 201.6066)" class="st2 st8 st9">.id</text>
	<g id="XMLID_10_">
		<polygon id="XMLID_12_" class="st1" points="-203.8,198.1 -200.8,193.2 -204.9,193.2 -206.1,196.1 -207.4,193.2 -211.5,193.2 
			-208.4,198.1 		"/>
		<polygon id="XMLID_11_" class="st1" points="-208.2,198.4 -206.1,201.7 -204.1,198.4 		"/>
	</g>
</g>
<g>
	<text transform="matrix(1 0 0 1 -156.6771 182.375)"><tspan x="0" y="0" class="st1 st7" style="font-size:2.6104px;">E</tspan><tspan x="1.7" y="0" class="st1 st6" style="font-size:2.6104px;">   </tspan><tspan x="3.9" y="0" class="st1 st7" style="font-size:2.6104px;">ENT</tspan><tspan x="9.4" y="0" class="st2 st4" style="font-size:2.6104px;">MEDIA</tspan></text>
	<text transform="matrix(1 0 0 1 -138.5174 182.373)" class="st2 st8" style="font-size:1.3341px;">.id</text>
	<g id="XMLID_16_">
		<polygon id="XMLID_18_" class="st1" points="-153.3,181.6 -152.6,180.5 -153.5,180.5 -153.8,181.2 -154.1,180.5 -155,180.5 
			-154.3,181.6 		"/>
		<polygon id="XMLID_17_" class="st1" points="-154.3,181.7 -153.8,182.4 -153.4,181.7 		"/>
	</g>
</g>
<text transform="matrix(1 0 0 1 -218.8335 207.8984)" class="st2 st4" style="font-size:5.4165px;">Indonesia Event Media Promotion</text>
<g id="XMLID_13_">
	<polygon id="XMLID_15_" class="st1" points="-142.7,173.1 -137.1,164.2 -144.5,164.2 -146.8,169.5 -149.1,164.2 -156.6,164.2 
		-151,173.1 	"/>
	<polygon id="XMLID_14_" class="st1" points="-150.6,173.7 -146.8,179.6 -143.1,173.7 	"/>
</g>
<rect x="-157.3" y="162.6" class="st0" width="20.7" height="20.7"/>
</svg>
